<?xml version="1.0" encoding="UTF-8" standalone="no"?>
<!DOCTYPE svg PUBLIC "-//W3C//DTD SVG 1.1//EN"
 "http://www.w3.org/Graphics/SVG/1.1/DTD/svg11.dtd">
<!-- Generated by graphviz version 2.43.0 (0)
 -->
<!-- Title: issue_dag Pages: 1 -->
<svg width="2782pt" height="347pt"
 viewBox="0.00 0.00 2782.00 346.83" xmlns="http://www.w3.org/2000/svg" xmlns:xlink="http://www.w3.org/1999/xlink">
<g id="graph0" class="graph" transform="scale(1 1) rotate(0) translate(4 342.83)">
<title>issue_dag</title>
<polygon fill="white" stroke="transparent" points="-4,4 -4,-342.83 2778,-342.83 2778,4 -4,4"/>
<text text-anchor="middle" x="1387" y="-320.43" font-family="Noto Sans CJK JP" font-size="18.00">Issue dependency DAG</text>
<!-- issue_70 -->
<g id="node1" class="node">
<title>issue_70</title>
<path fill="none" stroke="black" d="M2285,-235.37C2285,-235.37 1902,-235.37 1902,-235.37 1896,-235.37 1890,-229.37 1890,-223.37 1890,-223.37 1890,-211.37 1890,-211.37 1890,-205.37 1896,-199.37 1902,-199.37 1902,-199.37 2285,-199.37 2285,-199.37 2291,-199.37 2297,-205.37 2297,-211.37 2297,-211.37 2297,-223.37 2297,-223.37 2297,-229.37 2291,-235.37 2285,-235.37"/>
<text text-anchor="middle" x="2093.5" y="-213.67" font-family="Noto Sans CJK JP" font-size="14.00">#70 docs: worklog domain の最小イベント契約を定義する</text>
</g>
<!-- issue_76 -->
<g id="node7" class="node">
<title>issue_76</title>
<path fill="none" stroke="black" d="M2762,-289.37C2762,-289.37 2345,-289.37 2345,-289.37 2339,-289.37 2333,-283.37 2333,-277.37 2333,-277.37 2333,-265.37 2333,-265.37 2333,-259.37 2339,-253.37 2345,-253.37 2345,-253.37 2762,-253.37 2762,-253.37 2768,-253.37 2774,-259.37 2774,-265.37 2774,-265.37 2774,-277.37 2774,-277.37 2774,-283.37 2768,-289.37 2762,-289.37"/>
<text text-anchor="middle" x="2553.5" y="-267.67" font-family="Noto Sans CJK JP" font-size="14.00">#76 docs: 仕事イベントを worklog へ収める運用境界を定義する</text>
</g>
<!-- issue_70&#45;&gt;issue_76 -->
<g id="edge1" class="edge">
<title>issue_70&#45;&gt;issue_76</title>
<path fill="none" stroke="black" d="M2247.33,-235.39C2293.01,-240.78 2343.26,-246.7 2389.56,-252.16"/>
<polygon fill="black" stroke="black" points="2389.35,-255.66 2399.69,-253.35 2390.17,-248.71 2389.35,-255.66"/>
</g>
<!-- issue_71 -->
<g id="node2" class="node">
<title>issue_71</title>
<path fill="none" stroke="black" d="M2271,-289.37C2271,-289.37 1916,-289.37 1916,-289.37 1910,-289.37 1904,-283.37 1904,-277.37 1904,-277.37 1904,-265.37 1904,-265.37 1904,-259.37 1910,-253.37 1916,-253.37 1916,-253.37 2271,-253.37 2271,-253.37 2277,-253.37 2283,-259.37 2283,-265.37 2283,-265.37 2283,-277.37 2283,-277.37 2283,-283.37 2277,-289.37 2271,-289.37"/>
<text text-anchor="middle" x="2093.5" y="-267.67" font-family="Noto Sans CJK JP" font-size="14.00">#71 docs: eng domain の最小イベント契約を定義する</text>
</g>
<!-- issue_71&#45;&gt;issue_76 -->
<g id="edge2" class="edge">
<title>issue_71&#45;&gt;issue_76</title>
<path fill="none" stroke="black" d="M2283.1,-271.37C2296.17,-271.37 2309.41,-271.37 2322.66,-271.37"/>
<polygon fill="black" stroke="black" points="2322.8,-274.87 2332.79,-271.37 2322.79,-267.87 2322.8,-274.87"/>
</g>
<!-- issue_72 -->
<g id="node3" class="node">
<title>issue_72</title>
<path fill="none" stroke="black" d="M2730,-50.37C2730,-50.37 2377,-50.37 2377,-50.37 2371,-50.37 2365,-44.37 2365,-38.37 2365,-38.37 2365,-26.37 2365,-26.37 2365,-20.37 2371,-14.37 2377,-14.37 2377,-14.37 2730,-14.37 2730,-14.37 2736,-14.37 2742,-20.37 2742,-26.37 2742,-26.37 2742,-38.37 2742,-38.37 2742,-44.37 2736,-50.37 2730,-50.37"/>
<text text-anchor="middle" x="2553.5" y="-28.67" font-family="Noto Sans CJK JP" font-size="14.00">#72 docs: 転活・仕事ログの最小秘匿ルールを定義する</text>
</g>
<!-- issue_73 -->
<g id="node4" class="node">
<title>issue_73</title>
<path fill="none" stroke="black" d="M2267.5,-181.37C2267.5,-181.37 1919.5,-181.37 1919.5,-181.37 1913.5,-181.37 1907.5,-175.37 1907.5,-169.37 1907.5,-169.37 1907.5,-157.37 1907.5,-157.37 1907.5,-151.37 1913.5,-145.37 1919.5,-145.37 1919.5,-145.37 2267.5,-145.37 2267.5,-145.37 2273.5,-145.37 2279.5,-151.37 2279.5,-157.37 2279.5,-157.37 2279.5,-169.37 2279.5,-169.37 2279.5,-175.37 2273.5,-181.37 2267.5,-181.37"/>
<text text-anchor="middle" x="2093.5" y="-159.67" font-family="Noto Sans CJK JP" font-size="14.00">#73 docs: art domain の最小イベント契約を定義する</text>
</g>
<!-- issue_74 -->
<g id="node5" class="node">
<title>issue_74</title>
<path fill="none" stroke="black" d="M1842,-161.37C1842,-161.37 1414,-161.37 1414,-161.37 1408,-161.37 1402,-155.37 1402,-149.37 1402,-149.37 1402,-137.37 1402,-137.37 1402,-131.37 1408,-125.37 1414,-125.37 1414,-125.37 1842,-125.37 1842,-125.37 1848,-125.37 1854,-131.37 1854,-137.37 1854,-137.37 1854,-149.37 1854,-149.37 1854,-155.37 1848,-161.37 1842,-161.37"/>
<text text-anchor="middle" x="1628" y="-139.67" font-family="Noto Sans CJK JP" font-size="14.00">#74 docs: 新 domain 追加時の受け入れチェックリストを定義する</text>
</g>
<!-- issue_74&#45;&gt;issue_70 -->
<g id="edge3" class="edge">
<title>issue_74&#45;&gt;issue_70</title>
<path fill="none" stroke="black" d="M1723.06,-161.38C1772.63,-170.6 1834.51,-181.68 1890,-190.37 1906.48,-192.95 1923.73,-195.49 1940.92,-197.93"/>
<polygon fill="black" stroke="black" points="1940.64,-201.42 1951.03,-199.35 1941.62,-194.49 1940.64,-201.42"/>
</g>
<!-- issue_74&#45;&gt;issue_71 -->
<g id="edge4" class="edge">
<title>issue_74&#45;&gt;issue_71</title>
<path fill="none" stroke="black" d="M1667.41,-161.56C1717.48,-184.49 1808.34,-223.44 1890,-244.37 1900.02,-246.94 1910.39,-249.27 1920.9,-251.39"/>
<polygon fill="black" stroke="black" points="1920.52,-254.88 1931.01,-253.36 1921.86,-248.01 1920.52,-254.88"/>
</g>
<!-- issue_74&#45;&gt;issue_73 -->
<g id="edge5" class="edge">
<title>issue_74&#45;&gt;issue_73</title>
<path fill="none" stroke="black" d="M1854.3,-153.09C1868.58,-153.71 1882.89,-154.33 1897.02,-154.94"/>
<polygon fill="black" stroke="black" points="1897.13,-158.44 1907.27,-155.38 1897.43,-151.45 1897.13,-158.44"/>
</g>
<!-- issue_75 -->
<g id="node6" class="node">
<title>issue_75</title>
<path fill="none" stroke="black" d="M2277.5,-127.37C2277.5,-127.37 1909.5,-127.37 1909.5,-127.37 1903.5,-127.37 1897.5,-121.37 1897.5,-115.37 1897.5,-115.37 1897.5,-103.37 1897.5,-103.37 1897.5,-97.37 1903.5,-91.37 1909.5,-91.37 1909.5,-91.37 2277.5,-91.37 2277.5,-91.37 2283.5,-91.37 2289.5,-97.37 2289.5,-103.37 2289.5,-103.37 2289.5,-115.37 2289.5,-115.37 2289.5,-121.37 2283.5,-127.37 2277.5,-127.37"/>
<text text-anchor="middle" x="2093.5" y="-105.67" font-family="Noto Sans CJK JP" font-size="14.00">#75 docs: game domain の最小イベント契約を定義する</text>
</g>
<!-- issue_74&#45;&gt;issue_75 -->
<g id="edge6" class="edge">
<title>issue_74&#45;&gt;issue_75</title>
<path fill="none" stroke="black" d="M1854.3,-126.84C1865.33,-126.03 1876.37,-125.22 1887.34,-124.42"/>
<polygon fill="black" stroke="black" points="1887.67,-127.91 1897.38,-123.68 1887.16,-120.92 1887.67,-127.91"/>
</g>
<!-- issue_78 -->
<g id="node9" class="node">
<title>issue_78</title>
<path fill="none" stroke="black" d="M2279.5,-73.37C2279.5,-73.37 1907.5,-73.37 1907.5,-73.37 1901.5,-73.37 1895.5,-67.37 1895.5,-61.37 1895.5,-61.37 1895.5,-49.37 1895.5,-49.37 1895.5,-43.37 1901.5,-37.37 1907.5,-37.37 1907.5,-37.37 2279.5,-37.37 2279.5,-37.37 2285.5,-37.37 2291.5,-43.37 2291.5,-49.37 2291.5,-49.37 2291.5,-61.37 2291.5,-61.37 2291.5,-67.37 2285.5,-73.37 2279.5,-73.37"/>
<text text-anchor="middle" x="2093.5" y="-51.67" font-family="Noto Sans CJK JP" font-size="14.00">#78 docs: career domain の最小イベント契約を定義する</text>
</g>
<!-- issue_74&#45;&gt;issue_78 -->
<g id="edge7" class="edge">
<title>issue_74&#45;&gt;issue_78</title>
<path fill="none" stroke="black" d="M1697.86,-125.35C1750.26,-112.11 1824.32,-94.4 1890,-82.37 1904.45,-79.72 1919.53,-77.23 1934.65,-74.9"/>
<polygon fill="black" stroke="black" points="1935.23,-78.35 1944.59,-73.4 1934.18,-71.43 1935.23,-78.35"/>
</g>
<!-- issue_77 -->
<g id="node8" class="node">
<title>issue_77</title>
<path fill="none" stroke="black" d="M1354,-184.37C1354,-184.37 894,-184.37 894,-184.37 888,-184.37 882,-178.37 882,-172.37 882,-172.37 882,-160.37 882,-160.37 882,-154.37 888,-148.37 894,-148.37 894,-148.37 1354,-148.37 1354,-148.37 1360,-148.37 1366,-154.37 1366,-160.37 1366,-160.37 1366,-172.37 1366,-172.37 1366,-178.37 1360,-184.37 1354,-184.37"/>
<text text-anchor="middle" x="1124" y="-162.67" font-family="Noto Sans CJK JP" font-size="14.00">#77 docs: domain 拡張の最小ポリシーと allowlist 追加条件を定義する</text>
</g>
<!-- issue_77&#45;&gt;issue_70 -->
<g id="edge8" class="edge">
<title>issue_77&#45;&gt;issue_70</title>
<path fill="none" stroke="black" d="M1366.33,-182.3C1378.39,-183.02 1390.33,-183.71 1402,-184.37 1562.01,-193.39 1742.96,-201.98 1879.48,-208.13"/>
<polygon fill="black" stroke="black" points="1879.49,-211.64 1889.64,-208.59 1879.81,-204.64 1879.49,-211.64"/>
</g>
<!-- issue_77&#45;&gt;issue_71 -->
<g id="edge9" class="edge">
<title>issue_77&#45;&gt;issue_71</title>
<path fill="none" stroke="black" d="M1230.66,-184.41C1282.23,-192.8 1345.24,-202.42 1402,-209.37 1567.21,-229.59 1755.43,-246.06 1893.58,-256.92"/>
<polygon fill="black" stroke="black" points="1893.61,-260.44 1903.86,-257.73 1894.16,-253.46 1893.61,-260.44"/>
</g>
<!-- issue_77&#45;&gt;issue_72 -->
<g id="edge10" class="edge">
<title>issue_77&#45;&gt;issue_72</title>
<path fill="none" stroke="black" d="M1159.7,-148.36C1211.06,-122.69 1311.06,-76.48 1402,-56.37 1732,16.62 2128.27,3.62 2359.12,-13.59"/>
<polygon fill="black" stroke="black" points="2359.07,-17.1 2369.3,-14.36 2359.59,-10.12 2359.07,-17.1"/>
</g>
<!-- issue_77&#45;&gt;issue_73 -->
<g id="edge11" class="edge">
<title>issue_77&#45;&gt;issue_73</title>
<path fill="none" stroke="black" d="M1366.35,-170.13C1508.34,-171.74 1691.38,-172.76 1854,-170.37 1868.05,-170.16 1882.56,-169.89 1897.17,-169.57"/>
<polygon fill="black" stroke="black" points="1897.38,-173.06 1907.3,-169.34 1897.22,-166.07 1897.38,-173.06"/>
</g>
<!-- issue_77&#45;&gt;issue_74 -->
<g id="edge12" class="edge">
<title>issue_77&#45;&gt;issue_74</title>
<path fill="none" stroke="black" d="M1366.08,-155.32C1374.66,-154.93 1383.26,-154.54 1391.83,-154.14"/>
<polygon fill="black" stroke="black" points="1392.05,-157.64 1401.88,-153.68 1391.73,-150.65 1392.05,-157.64"/>
</g>
<!-- issue_77&#45;&gt;issue_75 -->
<g id="edge13" class="edge">
<title>issue_77&#45;&gt;issue_75</title>
<path fill="none" stroke="black" d="M1204.51,-148.34C1259.62,-136.76 1334.86,-122.72 1402,-116.37 1564.58,-100.98 1749.64,-99.99 1887.23,-102.43"/>
<polygon fill="black" stroke="black" points="1887.4,-105.93 1897.47,-102.62 1887.53,-98.93 1887.4,-105.93"/>
</g>
<!-- issue_77&#45;&gt;issue_76 -->
<g id="edge14" class="edge">
<title>issue_77&#45;&gt;issue_76</title>
<path fill="none" stroke="black" d="M1179.02,-184.44C1234.4,-202.27 1323.29,-229.04 1402,-244.37 1793.15,-320.55 1899.05,-319.34 2297,-298.37 2329.5,-296.66 2364.22,-293.73 2397.26,-290.42"/>
<polygon fill="black" stroke="black" points="2397.87,-293.87 2407.46,-289.38 2397.16,-286.91 2397.87,-293.87"/>
</g>
<!-- issue_77&#45;&gt;issue_78 -->
<g id="edge15" class="edge">
<title>issue_77&#45;&gt;issue_78</title>
<path fill="none" stroke="black" d="M1185.17,-148.3C1240.86,-132.36 1326.25,-109.93 1402,-98.37 1563.16,-73.77 1747.53,-63.17 1885.19,-58.64"/>
<polygon fill="black" stroke="black" points="1885.56,-62.13 1895.44,-58.31 1885.33,-55.13 1885.56,-62.13"/>
</g>
<!-- issue_78&#45;&gt;issue_72 -->
<g id="edge16" class="edge">
<title>issue_78&#45;&gt;issue_72</title>
<path fill="none" stroke="black" d="M2291.72,-45.47C2312.54,-44.42 2333.72,-43.36 2354.55,-42.31"/>
<polygon fill="black" stroke="black" points="2354.93,-45.8 2364.75,-41.8 2354.58,-38.8 2354.93,-45.8"/>
</g>
<!-- issue_79 -->
<g id="node10" class="node">
<title>issue_79</title>
<path fill="none" stroke="black" d="M376,-184.37C376,-184.37 12,-184.37 12,-184.37 6,-184.37 0,-178.37 0,-172.37 0,-172.37 0,-160.37 0,-160.37 0,-154.37 6,-148.37 12,-148.37 12,-148.37 376,-148.37 376,-148.37 382,-148.37 388,-154.37 388,-160.37 388,-160.37 388,-172.37 388,-172.37 388,-178.37 382,-184.37 376,-184.37"/>
<text text-anchor="middle" x="194" y="-162.67" font-family="Noto Sans CJK JP" font-size="14.00">#79 docs: define Event Contract v1 for JSONL events</text>
</g>
<!-- issue_80 -->
<g id="node11" class="node">
<title>issue_80</title>
<path fill="none" stroke="black" d="M834,-184.37C834,-184.37 436,-184.37 436,-184.37 430,-184.37 424,-178.37 424,-172.37 424,-172.37 424,-160.37 424,-160.37 424,-154.37 430,-148.37 436,-148.37 436,-148.37 834,-148.37 834,-148.37 840,-148.37 846,-154.37 846,-160.37 846,-160.37 846,-172.37 846,-172.37 846,-178.37 840,-184.37 834,-184.37"/>
<text text-anchor="middle" x="635" y="-162.67" font-family="Noto Sans CJK JP" font-size="14.00">#80 Define kind taxonomy v1 as a cross&#45;domain event t...</text>
</g>
<!-- issue_79&#45;&gt;issue_80 -->
<g id="edge17" class="edge">
<title>issue_79&#45;&gt;issue_80</title>
<path fill="none" stroke="black" d="M388.19,-166.37C396.71,-166.37 405.27,-166.37 413.84,-166.37"/>
<polygon fill="black" stroke="black" points="413.9,-169.87 423.9,-166.37 413.9,-162.87 413.9,-169.87"/>
</g>
<!-- issue_80&#45;&gt;issue_77 -->
<g id="edge18" class="edge">
<title>issue_80&#45;&gt;issue_77</title>
<path fill="none" stroke="black" d="M846.07,-166.37C854.58,-166.37 863.14,-166.37 871.72,-166.37"/>
<polygon fill="black" stroke="black" points="871.8,-169.87 881.8,-166.37 871.8,-162.87 871.8,-169.87"/>
</g>
</g>
</svg>
